<?xml version="1.0" encoding="UTF-8"?>
<svg id="Layer_1" xmlns="http://www.w3.org/2000/svg" version="1.1" viewBox="0 0 32 32">
  <!-- Generator: Adobe Illustrator 30.1.0, SVG Export Plug-In . SVG Version: 2.1.1 Build 136)  -->
  <rect width="32" height="32" rx="6" ry="6" fill="#df0"/>
  <path d="M30.2,16c-3.9,1.4-4.2,2.8-1.1,5.5-4.1-.3-4.9.8-3,4.5-3.7-1.8-4.8-1.1-4.5,3-2.8-3.1-4.1-2.8-5.5,1.1-1.4-3.9-2.8-4.2-5.5-1.1.3-4.1-.8-4.9-4.5-3,1.8-3.7,1.1-4.8-3-4.5,3.1-2.8,2.8-4.1-1.1-5.5,3.9-1.4,4.2-2.8,1.1-5.5,4.1.3,4.9-.8,3-4.5,3.7,1.8,4.8,1.1,4.5-3,2.8,3.1,4.1,2.8,5.5-1.1,1.4,3.9,2.8,4.2,5.5,1.1-.3,4.1.8,4.9,4.5,3-1.8,3.7-1.1,4.8,3,4.5-3.1,2.8-2.8,4.1,1.1,5.5Z" fill="#2d2d2d"/>
  <g>
    <circle cx="19.4" cy="13" r="1.8" fill="#df0"/>
    <circle cx="12.6" cy="13" r="1.8" fill="#df0"/>
  </g>
  <path d="M21.4,18.6c-1.4,1.4-3.3,2.2-5.4,2.2s-4-.9-5.4-2.2" fill="none" stroke="#df0" stroke-linecap="round" stroke-miterlimit="10" stroke-width="2"/>
</svg>